<svg xmlns="http://www.w3.org/2000/svg" width="550" height="570" viewBox="0, 0, 55, 57">
  <style>
    .label{opacity:0}
        .label:target,#disabled:target~#unknown{opacity:1}
        #disabled:target~path{filter:url(#disabled)}
  </style>
  <filter id="disabled">
    <feColorMatrix type="matrix" values="0.3333 0.3333 0.3333 0 0 0.3333 0.3333 0.3333 0 0 0.3333 0.3333 0.3333 0 0 0 0 0 1 0"/>
  </filter>
  <path d="M21 8H0v6h21l3-3-3-3z" fill="#58AB27"/>
  <text transform="translate(10.5 11)">
    <tspan x="7.165" y="2" font-family="Arial" font-size="5" fill="#FFF">A</tspan>
  </text>
  <path d="M18 1H0v6h18l3-3-3-3z" fill="#009036"/>
  <text transform="translate(8.919 4)">
    <tspan x="4.125" y="2" font-family="Arial" font-size="5" fill="#FFF">A⁺</tspan>
  </text>
  <path d="M24 15H0v6h24l3-3-3-3z" fill="#B1C800"/>
  <text transform="translate(12 18)">
    <tspan x="8.665" y="2" font-family="Arial" font-size="5" fill="#FFF">B</tspan>
  </text>
  <path d="M27 22H0v6h27l3-3-3-3z" fill="#FFEC00"/>
  <text transform="translate(13.5 25)">
    <tspan x="9.889" y="2" font-family="Arial" font-size="5" fill="#FFF">C</tspan>
  </text>
  <path d="M30 29H0v6h30l3-3-3-3z" fill="#FECC00"/>
  <text transform="translate(15 32)">
    <tspan x="11.389" y="2" font-family="Arial" font-size="5" fill="#FFF">D</tspan>
  </text>
  <path d="M33 36H0v6h33l3-3-3-3z" fill="#F29400"/>
  <text transform="translate(16.5 39)">
    <tspan x="13.165" y="2" font-family="Arial" font-size="5" fill="#FFF">E</tspan>
  </text>
  <path d="M36 43H0v6h36l3-3-3-3z" fill="#E2001A"/>
  <text transform="translate(18 46)">
    <tspan x="14.946" y="2" font-family="Arial" font-size="5" fill="#FFF">F</tspan>
  </text>
  <path d="M42 50H0v6h39l3-3-3-3z" fill="#E2001A"/>
  <text transform="translate(20.5 53)">
    <tspan x="14.946" y="2" font-family="sans-serif" font-size="5" fill="#FFF">G</tspan>
  </text>
  <g class="label" id="AA">
    <path d="M44 8l-4-4 4-4h11v8H44z"/>
    <text transform="translate(49.5 4)">
      <tspan x="-2.877" y="2" font-family="Arial" font-size="6" fill="#FFF">A⁺</tspan>
    </text>
  </g>
  <g class="label" id="A">
    <path d="M44 15l-4-4 4-4h11v8H44z"/>
    <text transform="translate(49.5 11)">
      <tspan x="-2.001" y="2" font-family="Arial" font-size="6" fill="#FFF">A</tspan>
    </text>
  </g>
  <g class="label" id="B">
    <path d="M44 22l-4-4 4-4h11v8H44z"/>
    <text transform="translate(49.5 18)">
      <tspan x="-2.001" y="2" font-family="Arial" font-size="6" fill="#FFF">B</tspan>
    </text>
  </g>
  <g class="label" id="C">
    <path d="M44 29l-4-4 4-4h11v8H44z"/>
    <text transform="translate(49.5 25)">
      <tspan x="-2.167" y="2" font-family="Arial" font-size="6" fill="#FFF">C</tspan>
    </text>
  </g>
  <g class="label" id="D">
    <path d="M44 36l-4-4 4-4h11v8H44z"/>
    <text transform="translate(49.5 32)">
      <tspan x="-2.167" y="2" font-family="Arial" font-size="6" fill="#FFF">D</tspan>
    </text>
  </g>
  <g class="label" id="E">
    <path d="M44 43l-4-4 4-4h11v8H44z"/>
    <text transform="translate(49.5 39)">
      <tspan x="-2.001" y="2" font-family="Arial" font-size="6" fill="#FFF">E</tspan>
    </text>
  </g>
  <g class="label" id="F">
    <path d="M44 50l-4-4 4-4h11v8H44z"/>
    <text transform="translate(49.5 46)">
      <tspan x="-1.833" y="2" font-family="Arial" font-size="6" fill="#FFF">F</tspan>
    </text>
  </g>
  <g class="label" id="G">
    <path d="M47 57l-4-4 4-4h11v8H44z"/>
    <text transform="translate(50.5 53)">
      <tspan x="-1.833" y="2" font-family="sans-serif" font-size="6" fill="#FFF">G</tspan>
    </text>
  </g>
  <g class="label" id="unknown">
    <path d="M44 32l-4-4 4-4h11v8H44z"/>
    <text transform="translate(49.5 28)">
      <tspan x="-2.167" y="2" font-family="Arial" font-size="6" fill="#FFF">?</tspan>
    </text>
  </g>
</svg>
