<?xml version="1.0" encoding="utf-8"?>
<svg version="1.1" id="Ebene_1" xmlns="http://www.w3.org/2000/svg" xmlns:xlink="http://www.w3.org/1999/xlink" x="0px" y="0px"
	 width="550" height="777" viewBox="0 0 550 777" style="enable-background:new 0 0 550 777;" xml:space="preserve">
<style type="text/css">
	.label{opacity:0}
	.label:target,#disabled:target~#unknown{opacity:1}
	#disabled:target~path{filter:url(#disabled)}
</style>

<path fill="#00943d" d="M116.6,77H0.6v60h116l30-30L116.6,77z"/>
<text transform="matrix(1 0 0 1 42.019 127)" font-family="Arial" font-size="55" fill="#FFF">A</text>
<text transform="matrix(1 0 0 1 75.319 127)" font-family="Helvetica" font-size="55" fill="#FFF">⁺⁺⁺</text>

<path fill="#00943d" d="M149,147H0v60h149l30-30L149,147z"/>
<text transform="matrix(1 0 0 1 90.4375 197)" font-family="Arial" font-size="55" fill="#FFF">A</text>
<text transform="matrix(1 0 0 1 123.7375 197)" font-family="Helvetica" font-size="55" fill="#FFF">⁺⁺</text>

<path fill="#45ab29" d="M180,217H0v60h180l30-30L180,217z"/>
<text transform="matrix(1 0 0 1 130.4375 267)" font-family="Arial" font-size="55" fill="#FFF">A</text>
<text transform="matrix(1 0 0 1 163.7375 267)" font-family="Helvetica" font-size="55" fill="#FFF">⁺</text>

<path fill="#bfd100" d="M210,287H0v60h210l30-30L210,287z"/>
<text transform="matrix(1 0 0 1 176.6484 337)" font-family="Arial" font-size="55" fill="#FFF">A</text>

<path fill="#bfd100" d="M240,357H0v60h240l30-30L240,357z"/>
<text transform="matrix(1 0 0 1 206.6484 407)" font-family="Arial" font-size="55" fill="#FFF">B</text>

<path fill="#ffed00" d="M270,427H0v60h270l30-30L270,427z"/>
<text transform="matrix(1 0 0 1 233.8906 477)" font-family="Arial" font-size="55" fill="#FFF">C</text>

<path fill="#ee6300" d="M300,497H0v60h300l30-30L300,497z"/>
<text transform="matrix(1 0 0 1 263.8906 547)" font-family="Arial" font-size="55" fill="#FFF">D</text>

<path fill="#e7000e" d="M330,567H0v60h330l30-30L330,567z"/>
<text transform="matrix(1 0 0 1 296.6484 617)" font-family="Arial" font-size="55" fill="#FFF">E</text>

<path fill="#e7000e" d="M360,637H0v60h360l30-30L360,637z"/>
<text transform="matrix(1 0 0 1 329.4609 687)" font-family="Arial" font-size="55" fill="#FFF">F</text>

<path  fill="#e7000e" d="M420,707H0v60h390l30-30l-30-30H420z"/>
<text transform="matrix(1 0 0 1 354.4609 757)" font-family="Arial" font-size="55" fill="#FFF">G</text>


<g id="AAAA" class="label">
	<path d="M399.9,147l-40-40l40-40h150v80H399.9z"/>
	<text transform="matrix(1 0 0 1 407.127 127)" font-family="Arial" font-size="55" fill="#FFF">A</text>
	<text transform="matrix(1 0 0 1 447.127 127)" font-family="Helvetica" font-size="55" fill="#FFF">⁺⁺⁺</text>
</g>
<g id="AAA" class="label">
	<path d="M439.9,217l-40-40l40-40h110v80H439.9z"/>
	<text transform="matrix(1 0 0 1 436.8926 197)" font-family="Arial" font-size="55" fill="#FFF">A</text>
	<text transform="matrix(1 0 0 1 476.8926 197)" font-family="Helvetica" font-size="55" fill="#FFF">⁺⁺</text>
</g>
<g id="AA" class="label">
	<path d="M440,287l-40-40l40-40h110v80H440z"/>
	<text transform="matrix(1 0 0 1 466.2266 267)" font-family="Arial" font-size="55" fill="#FFF">A</text>
	<text transform="matrix(1 0 0 1 506.2266 267)" font-family="Helvetica" font-size="55" fill="#FFF">⁺</text>
</g>
<g id="A" class="label">
	<path d="M440,357l-40-40l40-40h110v80H440z"/>
	<text transform="matrix(1 0 0 1 474.9922 337)" font-family="Arial" font-size="55" fill="#FFF">A</text>
</g>
<g id="B" class="label">
	<path d="M440,427l-40-40l40-40h110v80H440z"/>
	<text transform="matrix(1 0 0 1 474.9922 407)" font-family="Arial" font-size="55" fill="#FFF">B</text>
</g>
<g id="C" class="label">
	<path d="M440,497l-40-40l40-40h110v80H440z"/>
	<text transform="matrix(1 0 0 1 473.3281 477)" font-family="Arial" font-size="55" fill="#FFF">C</text>
</g>
<g id="D" class="label">
	<path d="M440,567l-40-40l40-40h110v80H440z"/>
	<text transform="matrix(1 0 0 1 473.3281 547)" font-family="Arial" font-size="55" fill="#FFF">D</text>
</g>
<g id="E" class="label">
	<path d="M440,637l-40-40l40-40h110v80H440z"/>
	<text transform="matrix(1 0 0 1 474.9922 617)" font-family="Arial" font-size="55" fill="#FFF">E</text>
</g>
<g id="F" class="label">
	<path d="M440,707l-40-40l40-40h110v80H440z"/>
	<text transform="matrix(1 0 0 1 476.6719 687)" font-family="Arial" font-size="55" fill="#FFF">F</text>
</g>
<g id="G" class="label">
	<path d="M470,777l-40-40l40-40h110v80H440H470z"/>
	<text transform="matrix(1 0 0 1 486.6719 757)" font-family="Arial" font-size="55" fill="#FFF">G</text>
</g>
<g id="unknown" class="label">
	<path d="M440,527l-40-40l40-40h110v80H440z"/>
	<text transform="matrix(1 0 0 1 473.3281 507)" font-family="Arial" font-size="55" fill="#FFF">?</text>
</g>
</svg>


